<?xml version="1.0" encoding="utf-8"?>
<!-- Generator: Adobe Illustrator 23.0.6, SVG Export Plug-In . SVG Version: 6.00 Build 0)  -->
<svg version="1.1" id="Layer_1" xmlns="http://www.w3.org/2000/svg" xmlns:xlink="http://www.w3.org/1999/xlink" x="0px" y="0px"
	 viewBox="0 0 62.41 107.23" style="enable-background:new 0 0 62.41 107.23;" xml:space="preserve">
<g>
	<path d="M11.73,105.56c-0.84,1.12-1.96,1.67-3.35,1.67c-1.4,0-2.65-0.56-3.77-1.67l-2.93-2.93C0.56,101.79,0,100.67,0,99.27
		c0-1.4,0.56-2.65,1.68-3.77L44.4,53.62L1.68,11.73c-0.84-1.12-1.26-2.37-1.26-3.77c0-1.4,0.42-2.51,1.26-3.35l2.93-3.35
		C5.73,0.42,6.98,0,8.38,0c1.4,0,2.51,0.42,3.35,1.26l49.43,48.59c0.84,1.12,1.26,2.37,1.26,3.77s-0.42,2.65-1.26,3.77v-0.42
		L11.73,105.56z"/>
</g>
</svg>
